PathFileType	4	(X/Y/Z)	Walking06.trc	
DataRate	CameraRate	NumFrames	NumMarkers	Units	OrigDataRate	OrigDataStartFrame	OrigNumFrames	
100.00	100.00	10	19	mm	100.00	409	98	
Frame#	Time	RPSI			LPSI			RASI			LASI			RTHI			RKNE			RHFB			RTUB			RSHN			RANK			RLCA			RSTL			RPCA			RCPG			RHEE			RP5M			RP1M			RD5M			RTOE			
		X1	Y1	Z1	X2	Y2	Z2	X3	Y3	Z3	X4	Y4	Z4	X5	Y5	Z5	X6	Y6	Z6	X7	Y7	Z7	X8	Y8	Z8	X9	Y9	Z9	X10	Y10	Z10	X11	Y11	Z11	X12	Y12	Z12	X13	Y13	Z13	X14	Y14	Z14	X15	Y15	Z15	X16	Y16	Z16	X17	Y17	Z17	X18	Y18	Z18	X19	Y19	Z19	

50	0.490	-95.83205	889.90894	-60.00061	-92.38762	885.55505	-151.81036	82.93714	841.91541	46.87445	110.33070	840.01288	-193.24350	-85.13938	556.82697	60.46101	-130.59773	423.18979	35.51128	-155.88611	387.93469	33.75448	-107.03903	347.58078	-17.55777	-158.19267	291.77350	-25.44777	-370.62326	129.75891	-0.41364	-392.68149	115.79657	-8.22851	-380.58524	110.62504	-71.70612	-398.25647	148.69666	-45.19385	-428.27621	150.56952	-46.22487	-425.81378	117.28682	-51.73419	-331.30478	37.89983	22.22629	-284.09558	73.07980	-52.85569	-302.39600	22.02770	28.78285	-259.58966	32.72044	-7.93508 
51	0.500	-79.89417	888.96466	-60.44913	-76.55500	884.88208	-152.70099	100.29327	840.94739	44.96765	126.64999	840.05164	-194.97159	-66.43586	554.29407	59.71638	-110.68299	420.60602	36.27807	-136.99104	385.98883	35.02272	-88.81594	344.16699	-15.93288	-142.40639	290.07556	-24.08627	-361.23633	137.06094	0.18854	-383.75876	124.50304	-7.09151	-371.63321	119.07053	-70.90147	-387.75754	157.94986	-44.25700	-417.23978	161.56050	-45.53614	-416.49847	128.45639	-51.05996	-328.24786	42.38224	22.19290	-278.13095	74.33752	-52.73806	-300.69543	24.74171	28.38064	-258.06207	32.88200	-8.10805 
52	0.510	-63.48574	888.12219	-60.61588	-61.19709	885.09497	-153.15778	117.62663	840.06073	42.44426	142.59387	840.86078	-197.01712	-46.40577	551.41364	58.97245	-89.41686	417.65646	37.35266	-116.49335	383.94931	36.66323	-68.77343	340.71024	-13.92651	-125.07617	288.20102	-22.55673	-349.45053	144.75229	0.52957	-372.41956	134.14108	-5.36662	-360.40472	128.01947	-70.09759	-374.69925	167.57506	-43.38985	-403.19159	173.45015	-44.61428	-404.62073	140.52525	-50.53088	-323.66919	47.85019	21.83291	-272.51483	75.03899	-52.73333	-298.16089	27.76856	27.93303	-256.34891	32.84995	-8.43545 
53	0.520	-47.28964	887.35114	-60.46288	-45.89586	885.95557	-153.30821	134.79880	839.24091	39.45242	158.32315	842.52252	-199.37039	-25.01906	548.34424	58.46095	-66.65360	414.67090	39.04308	-94.32987	381.88974	38.65910	-46.94837	337.07837	-11.19951	-105.78687	286.31903	-20.44708	-336.01102	152.79927	1.46321	-359.04193	143.85550	-5.17848	-346.79938	137.46339	-69.25665	-359.29480	177.60654	-42.51392	-387.19510	185.29004	-44.00647	-390.29526	153.01132	-50.25280	-318.90042	53.94876	22.36455	-265.74527	76.00217	-52.02923	-295.17056	31.18620	27.82176	-254.57224	32.87092	-8.84021 
54	0.530	-31.07001	886.57550	-60.05330	-30.51589	887.04382	-153.24390	151.81746	838.62970	35.91374	173.95044	844.95551	-202.09288	-2.56930	545.23035	58.40084	-42.59390	411.58847	41.10583	-70.83320	379.75571	41.06848	-23.52068	333.27359	-7.62500	-84.60622	284.43860	-17.48435	-321.11288	161.49120	2.49345	-344.14502	154.80345	-4.65488	-331.40619	147.80914	-68.25347	-342.11414	188.72148	-41.67504	-369.07297	198.07310	-43.71964	-374.06876	166.54533	-50.74687	-313.83206	61.39665	23.24426	-258.09875	78.04395	-50.91633	-292.22070	35.39928	28.07434	-252.36749	33.81308	-8.94657 
55	0.540	-15.18366	886.04272	-59.44248	-15.27859	888.12457	-152.99854	168.91129	838.50378	31.79701	189.15538	847.83746	-205.18033	20.48873	542.18958	58.91800	-17.42773	408.64163	43.40990	-45.93740	377.54028	43.77393	1.08247	329.76575	-3.50693	-62.15315	282.71466	-13.66661	-305.30017	171.74825	3.03316	-328.98373	168.09839	-3.24501	-314.73367	159.35835	-67.34099	-323.49820	200.94833	-41.12086	-349.17590	211.90860	-43.56136	-356.05310	181.52782	-51.15044	-306.65308	70.57446	23.48994	-248.84459	82.88196	-49.50517	-288.15115	41.36194	28.97866	-248.43382	37.00900	-8.04935 
56	0.550	0.37331	885.74719	-58.68957	-0.31383	889.27167	-152.50720	185.78815	838.90625	27.67494	203.61278	850.76880	-208.33809	44.11064	539.25812	59.79856	8.62867	405.60312	45.86850	-19.85162	375.21634	46.69459	26.32496	326.91861	0.50922	-39.24051	281.31387	-10.22653	-288.28299	183.17136	2.83846	-312.47186	181.91389	-1.22098	-296.58533	171.49751	-66.70071	-302.82648	213.44879	-40.65904	-326.87604	226.29439	-43.23683	-335.83682	197.08192	-49.33229	-296.09708	82.21351	24.29570	-237.37146	89.53778	-48.36511	-281.04156	49.75108	29.58273	-242.35088	42.01719	-6.58968 
57	0.560	15.58494	885.63416	-57.93079	14.19163	890.58307	-151.78012	202.00667	839.29584	23.73125	217.64659	853.49994	-211.31772	68.04552	536.47339	60.60737	35.44765	402.62289	48.55231	7.22818	373.25980	50.00217	52.01152	324.55954	3.77060	-15.67854	280.47855	-7.52831	-268.26556	194.66801	4.29511	-291.19455	193.41844	-2.24276	-276.31976	183.40149	-66.26438	-279.57947	225.14302	-39.52723	-302.57452	239.96767	-42.10933	-313.46530	212.02020	-48.41198	-282.84863	94.00572	24.58183	-223.61003	96.90955	-47.93633	-271.11115	60.16520	29.22685	-233.92552	47.93105	-5.32614 
58	0.570	30.50133	885.65387	-57.17941	28.32051	892.17468	-151.03284	217.77327	839.50781	20.19915	231.29860	855.77032	-214.21054	92.07119	534.27216	61.26992	62.39891	400.09003	51.46526	34.83712	371.84369	53.50013	78.55440	323.05524	6.70859	9.20104	280.32431	-4.94836	-244.21375	204.21896	4.81720	-267.90903	204.22578	-1.85303	-253.85541	194.20921	-66.40675	-254.14133	235.70982	-38.79836	-276.06586	252.29222	-41.08096	-288.86929	225.36682	-48.26081	-266.96939	105.14349	24.21142	-207.24234	103.81214	-47.88280	-257.45212	71.01516	28.40123	-222.34901	54.72715	-4.97923 
59	0.580	45.21527	885.80273	-56.58846	42.84703	893.75079	-150.52708	233.10678	839.67279	17.16268	244.94597	857.74835	-217.08830	115.75927	533.36456	61.84725	89.19239	398.64093	54.44758	62.45510	371.31396	56.77402	105.71053	322.26764	9.63118	35.33806	280.80460	-2.53500	-220.07693	212.80040	3.98908	-243.64433	213.93965	-2.94657	-229.45659	203.43015	-67.43941	-227.31470	244.73053	-39.08486	-247.83487	262.58401	-41.15826	-262.53101	236.70947	-49.17082	-248.18924	115.48588	23.51118	-188.53812	110.10019	-48.14704	-240.55222	81.26838	28.31688	-207.29166	61.90683	-4.78837 
